<svg xmlns="http://www.w3.org/2000/svg" viewBox="0 0 430 179.4">
  <g id="logo-lg-black" transform="translate(-49.9 -33)">
    <path id="Path_1" data-name="Path 1" d="M306.5,148.7a19.438,19.438,0,0,0,11.1-3.7c3.5-2.5,5.3-5.4,5.3-7.2v-4.1c0-3.5.1-5.1,1.2-5.6a6.468,6.468,0,0,1,1.3-.4c-1.1.1-3.5.1-6.3.1-2.9,0-5.4,0-7.7-.1.1,0,.2-.1.3-.1-1.1.1-3.5.1-6.3.1-3,0-5.7,0-8-.1,3.8.3,5.2,1.5,5.2,6.7v6.1a6.157,6.157,0,0,1-1.7,4.6,8.354,8.354,0,0,1-1.7,1.3c-6.3-3.2-9.2-10.9-9.2-23.6,0-7.6,1.4-13.8,4.2-18.1a19.788,19.788,0,0,1,4.7-5.2,17.667,17.667,0,0,1,5.4,7.7l4.8-2.7a22.562,22.562,0,0,0-8.1-6.2,11.478,11.478,0,0,1,4.6-1c5.6,0,9.8,3.3,12.3,10l4.8-2.7c-4.5-5.2-9.8-7.8-16.2-7.8h-.9a24.442,24.442,0,0,0-6.3,1,19.678,19.678,0,0,0-6.5-1h-.9c-15.5.5-22.7,12.8-22.7,26.9,0,15,7.9,25.1,23.5,25.1a17.907,17.907,0,0,0,5.7-.9A35.277,35.277,0,0,0,306.5,148.7Zm-2.5-3.8c3.5-2.5,5.3-5.4,5.3-7.2v-4.1c0-3.5.1-5.1,1.2-5.6.3-.1.6-.2,1-.3,3.6.3,4.9,1.6,4.9,6.7v6.1a6.157,6.157,0,0,1-1.7,4.6,11.6,11.6,0,0,1-7.7,2.8,18.259,18.259,0,0,1-6.4-1.1A14.527,14.527,0,0,0,304,144.9Zm-10.7,3c-11.6,0-16.8-8.2-16.8-25.2,0-7.6,1.4-13.8,4.2-18.1s6.2-7.4,11.3-7.4a11.784,11.784,0,0,1,5.3,1.2c-9.7,3.9-14.2,14-14.2,25.2,0,11.7,4.8,20.4,14.2,23.7A17.561,17.561,0,0,1,293.3,147.9Z" fill="#020314"/>
    <path id="Path_2" data-name="Path 2" d="M360.8,133c-.5,4.9-1.2,8.3-2.9,10.3s-4.3,3.7-8.7,3.7h-5.1c-3.2,0-4.8-1.1-5.3-2.7a16.368,16.368,0,0,1-.4-3.8v-35c0-3.9,1.4-6.4,4.3-7.5-1,.1-3.4.2-6.2.2C333.2,70.6,324,38,302.7,33.9a16.988,16.988,0,0,0-5.4-.9c-17.3,0-31.9,27.6-36.4,65.1h-.7c-1.8,0-3.6-.1-5.4-.2,3.3,1.1,5,3.8,5,8.2v5.8c-.2,3.5-.3,7.2-.3,10.8s.1,7.3.3,10.8v2.7L234.9,97.8c-1.5.1-2.7.2-4.8.2a43.488,43.488,0,0,1-5.1-.2c2.9,1.1,4.3,3.6,4.3,7.5v34.3c0,4.4-1.4,7.2-4.3,8.2,1.6-.1,3.2-.1,4.8-.1,2.9,0,4.7,0,5.5.1-3.3-1-5.1-3.8-5.1-8.2V102.3l29.7,45.8h1.2c4.6,37.1,19.1,64.3,36.3,64.3a16.988,16.988,0,0,0,5.4-.9c21.8-4.1,30.6-38,33.8-63.8h18.2c3,0,5.1.1,6.4.1-.3-3.5-.4-7.2-.4-9A37.044,37.044,0,0,1,360.8,133Zm-100.1-.8V113c.2-4,.5-7.8.8-11.6a6.835,6.835,0,0,1,4.1-3.7,24.056,24.056,0,0,1-3.7.2c4.4-37,18.6-64.1,35.4-64.1S328.2,61,332.7,98a51.4,51.4,0,0,1-5.2-.2c2.9,1.1,4.3,3.6,4.3,7.5v35c0,4.4-1.4,6.9-4.3,7.4,1.4,0,3.2-.1,5.2-.1-4.5,36.8-18.6,63.7-35.3,63.7C278.3,211.5,262.6,176.7,260.7,132.2Z" fill="#020314"/>
    <path id="Path_3" data-name="Path 3" d="M403.6,143.4,386.3,97.5h-.4l-16.6,44.2c-1.3,3.5-3.2,5.6-5.6,6.1,1.7-.1,3.3-.1,4.6-.1,2,0,3.8.1,5.3.1-2.2-.2-3.4-1.5-3.4-3.9a17.235,17.235,0,0,1,1.5-6.1l3.5-9.6H391l4.9,13.6a7.751,7.751,0,0,1,.7,3c0,1.9-1.2,2.8-3.5,3,2.5-.1,5.1-.1,7.6-.1,3.5,0,5.9,0,7.4.1C406.2,147.6,404.7,146.2,403.6,143.4Zm-28.1-15.9,7.7-21,7.6,21Z" fill="#020314"/>
    <path id="Path_4" data-name="Path 4" d="M467.2,119.1c-6.4-4-11.9-6.5-11.9-12.9,0-5.2,5.4-8.7,10.2-8.7,7.2,0,11.6,7.4,11.6,14.1,0-9,.2-11.8.4-14.4-.4,1.2-1,2.6-2.5,2.6a5.813,5.813,0,0,1-2.5-.9,18.4,18.4,0,0,0-9.2-2.2c-7.3,0-13.3,4.4-13.3,12.2,0,8,5.8,11.8,12.6,15.8,6.6,4,11,7.1,11,12.9,0,6.7-4.8,9.4-10.8,9.4-24,0-10.6-50.3-35.4-50.3-7.7,0-14.5,3.4-14.5,12.2,0,8,5.8,11.8,12.6,15.8,6.6,4,11,7.1,11,12.9,0,4.4-1.7,7.1-5.6,8.4a15.376,15.376,0,0,1-5.2.9c-9,0-12.3-7.5-12.9-16,0,10,.1,14-.3,17-.1.6.2-2.7,2.9-2.7,2.1,0,5.2,2.7,10.4,3.3a11.482,11.482,0,0,0,1.9.1c7.9,0,15.1-5.1,15.1-13.6,0-7.6-5.4-11.4-12.7-15.9-6.4-4-11.9-6.5-11.9-12.9,0-4.5,4.8-8.7,9.2-8.7,23.7,0,10,50.9,36.4,50.9,9,0,16.1-5.3,16.1-13.4C479.9,127.4,474.5,123.6,467.2,119.1Z" fill="#020314"/>
    <path id="Path_5" data-name="Path 5" d="M83.3,133c-.5,4.9-1.2,8.3-2.9,10.3s-4.3,3.7-8.7,3.7H66.6c-3.2,0-4.8-1.1-5.3-2.7a16.367,16.367,0,0,1-.4-3.8v-35c0-3.9,1.4-6.4,4.3-7.5-1.2-.1-4.2,0-7.6,0-3.7,0-6.6-.1-7.7-.2,2.9,1.1,4.3,3.6,4.3,7.5v35c0,4.4-1.4,6.9-4.3,7.4,4.8-.1,15-.1,19.1-.1h8.1c3,0,5.1.1,6.4.1-.3-3.5-.4-7.2-.4-9C83.1,136.4,83.2,134.5,83.3,133Z" fill="#020314"/>
    <path id="Path_6" data-name="Path 6" d="M132.5,96.7a20.777,20.777,0,0,0-11.2,3.1,22.8,22.8,0,0,0-11.8-3.1C96.4,96.7,87,107.4,87,123.1c0,14.4,7.4,25.6,22.7,25.6a20.547,20.547,0,0,0,10.8-3.1,22.8,22.8,0,0,0,11.8,3.1c13.1,0,22.5-10.7,22.5-26.4C154.8,106.1,145.9,96.7,132.5,96.7Zm-14.9,47.9a10.87,10.87,0,0,1-7.9,3.5c-5.7,0-10.8-4.8-13.5-12.3a36.536,36.536,0,0,1-2.1-13c0-9.8,2.6-17.3,7.2-22a10.707,10.707,0,0,1,7.9-3.5c3.5,0,6.6,1.7,9.2,4.7-5.1,4.6-8.3,12.1-8.3,21.2,0,9.4,3,16.5,8.2,20.8Zm-.5-21.7c0-7,1.3-12.9,3.8-17.3,3,5.3,3.9,10.9,3.9,17,0,6.9-1.3,12.8-3.8,17.3A34.8,34.8,0,0,1,117.1,122.9Zm23.5,21.7a10.707,10.707,0,0,1-7.9,3.5c-3.4,0-6.6-1.7-9.2-4.7,5.2-4.6,8.3-12.1,8.3-21.2,0-9.4-3-16.5-8.2-20.8,2.5-2.5,4.8-4.2,8.6-4.2,5.8,0,10.8,4.8,13.6,12.2a39.647,39.647,0,0,1,2,13.1C147.8,132.2,145.2,139.9,140.6,144.6Z" fill="#020314"/>
    <path id="Path_7" data-name="Path 7" d="M179.7,123.1c-3,0-5.4,2.3-7.2,6,1.5-11,16-9,20.4-25.7.4-1.7,2-5.6,4.7-5.6H189c-.4,24-17.4,18.4-17.4,33.3h.7c1.7-3.8,3.4-4.5,4.4-4.5h.4c3.5,0,6.9,6.8,11.3,16.9.4.9,1.6,3.7-2,4.3,0,0,4.3-.1,6.5-.1s7.6.1,7.6.1C191.5,146.2,189.2,123.1,179.7,123.1Z" fill="#020314"/>
    <path id="Path_8" data-name="Path 8" d="M170.1,140.3v-35c0-3.9,1.4-6.4,4.3-7.5-1.2.1-4.2.2-7.5.2-3.7,0-6.6-.1-7.7-.2,2.9,1.1,4.3,3.6,4.3,7.5v35c0,3.8-1.4,6.4-4.3,7.4a69.288,69.288,0,0,1,7.7-.2,69.129,69.129,0,0,1,7.5.2C171.4,146.7,170.1,144.1,170.1,140.3Z" fill="#020314"/>
    <path id="Path_9" data-name="Path 9" d="M219.6,97.8c-1.2.1-4.2.2-7.5.2-3.7,0-6.6-.1-7.7-.2,2.9,1.1,4.3,3.6,4.3,7.5v35c0,3.9-1.4,6.4-4.3,7.4,1.1-.1,4-.1,7.7-.1,3.3,0,6.4,0,7.5.1-2.9-1-4.3-3.5-4.3-7.4v-35C215.3,101.4,216.7,98.9,219.6,97.8Z" fill="#020314"/>
  </g>
</svg>
